<!-- Generated by IcoMoon.io -->
<svg version="1.1" xmlns="http://www.w3.org/2000/svg" width="768" height="768" viewBox="0 0 768 768">
<title></title>
<g id="icomoon-ignore">
</g>
<path fill="#000" d="M384 96c0 0-197.952 170.88-308.576 263.424-6.496 5.888-11.424 14.464-11.424 24.576 0 17.696 14.304 32 32 32h64v224c0 17.696 14.304 32 32 32h96c17.696 0 32-14.336 32-32v-128h128v128c0 17.664 14.304 32 32 32h96c17.696 0 32-14.304 32-32v-224h64c17.696 0 32-14.304 32-32 0-10.112-4.928-18.688-12.256-24.576-109.856-92.544-307.744-263.424-307.744-263.424z"></path>
</svg>
